<svg width="240" height="240" viewBox="0 0 240 240" fill="none" xmlns="http://www.w3.org/2000/svg">
<path d="M120 224C177.438 224 224 177.438 224 120C224 62.5624 177.438 16 120 16C62.5624 16 16 62.5624 16 120C16 177.438 62.5624 224 120 224Z" fill="#B1A8E9" fill-opacity="0.5"/>
<path d="M120 206C167.496 206 206 167.496 206 120C206 72.5035 167.496 34 120 34C72.5035 34 34 72.5035 34 120C34 167.496 72.5035 206 120 206Z" fill="url(#paint0_radial)" fill-opacity="0.8"/>
<path d="M118.366 62.5466L66.5776 87.5478C65.9283 87.8612 65.5156 88.5188 65.5156 89.2398V150.76C65.5156 151.481 65.9283 152.138 66.5776 152.452L118.366 177.454C119.399 177.952 120.601 177.952 121.634 177.454L173.423 152.452C174.072 152.138 174.485 151.481 174.485 150.76V89.24C174.485 88.5191 174.072 87.8616 173.423 87.5481L121.634 62.5466C120.601 62.0483 119.399 62.0483 118.366 62.5466Z" fill="#8171F1"/>
<path d="M65.828 88.2112C65.6304 88.5119 65.5156 88.8659 65.5156 89.2397V150.76C65.5156 151.481 65.9283 152.138 66.5776 152.452L118.366 177.454C118.882 177.703 119.441 177.827 120 177.827V114.364L65.828 88.2112Z" fill="#4E3EB8"/>
<path d="M174.172 88.2112C174.37 88.5119 174.485 88.8659 174.485 89.2397V150.76C174.485 151.481 174.072 152.138 173.423 152.452L121.634 177.454C121.118 177.703 120.559 177.827 120 177.827V114.364L174.172 88.2112Z" fill="#6352D4"/>
<path d="M155.814 97.0436L101.452 70.7812L87.1211 77.7274L141.606 104.03L155.814 97.0436Z" fill="#FFDB72"/>
<path d="M141.606 104.03V124.407C141.606 125.1 142.33 125.554 142.954 125.253L154.752 119.557C155.402 119.244 155.814 118.586 155.814 117.865V97.0435L141.606 104.03Z" fill="#EAC351"/>
<path d="M175.249 86.4774L120.764 60.1749C120.281 59.942 119.719 59.942 119.236 60.1749L64.7513 86.4774C64.1438 86.7707 63.7578 87.3859 63.7578 88.0604V151.939C63.7578 152.614 64.1438 153.229 64.7513 153.522L119.236 179.825C119.477 179.941 119.739 180 120 180C120.261 180 120.523 179.941 120.764 179.825L175.249 153.522C175.856 153.229 176.242 152.614 176.242 151.939V88.0607C176.242 87.3859 175.856 86.7709 175.249 86.4774ZM120 63.7098L170.441 88.0607L155.82 95.1196C155.727 95.049 155.629 94.9839 155.522 94.9321L105.423 70.7469L120 63.7098ZM101.453 72.7344L151.821 97.0499L141.505 102.03L91.1583 77.7242L101.453 72.7344ZM143.364 105.037L153 100.385V118.794L143.364 123.446V105.037ZM121.758 175.442V115.467L133.916 109.598C134.79 109.175 135.156 108.125 134.734 107.25C134.312 106.376 133.261 106.009 132.387 106.432L120 112.412L115.126 110.059C114.251 109.636 113.201 110.003 112.779 110.877C112.357 111.751 112.723 112.802 113.597 113.224L118.242 115.467V175.441L67.2734 150.836V90.861L106.086 109.598C106.332 109.717 106.592 109.773 106.849 109.773C107.502 109.773 108.13 109.407 108.433 108.779C108.855 107.905 108.488 106.854 107.614 106.432L69.5588 88.0604L87.0209 79.6304L139.824 105.122C139.832 105.133 139.84 105.142 139.848 105.153V126.246C139.848 126.851 140.159 127.414 140.672 127.735C140.956 127.914 141.281 128.004 141.606 128.004C141.867 128.004 142.128 127.946 142.37 127.829L155.522 121.48C156.129 121.187 156.515 120.572 156.515 119.897V98.6877L172.727 90.8614V150.836L121.758 175.442Z" fill="#323845"/>
<path d="M81.7794 144.019L73.7837 140.159C72.909 139.736 71.8586 140.103 71.4365 140.978C71.0144 141.852 71.3809 142.903 72.2551 143.325L80.2508 147.185C80.4972 147.304 80.7576 147.36 81.0137 147.36C81.6672 147.36 82.2948 146.994 82.5979 146.366C83.0202 145.492 82.6537 144.441 81.7794 144.019Z" fill="#323845"/>
<path d="M89.1382 139.229L73.7948 131.821C72.9204 131.399 71.8697 131.766 71.4476 132.64C71.0257 133.515 71.3923 134.565 72.2665 134.988L87.6098 142.395C87.8562 142.514 88.1166 142.57 88.3727 142.57C89.0262 142.57 89.6538 142.204 89.9569 141.576C90.379 140.702 90.0124 139.65 89.1382 139.229Z" fill="#323845"/>
<path d="M184 51C190.627 51 196 45.6274 196 39C196 32.3726 190.627 27 184 27C177.373 27 172 32.3726 172 39C172 45.6274 177.373 51 184 51Z" fill="#8170F1"/>
<path d="M33 129C37.9706 129 42 124.971 42 120C42 115.029 37.9706 111 33 111C28.0294 111 24 115.029 24 120C24 124.971 28.0294 129 33 129Z" fill="#8170F1"/>
<path d="M206 212C209.314 212 212 209.314 212 206C212 202.686 209.314 200 206 200C202.686 200 200 202.686 200 206C200 209.314 202.686 212 206 212Z" fill="#8170F1"/>
<defs>
<radialGradient id="paint0_radial" cx="0" cy="0" r="1" gradientUnits="userSpaceOnUse" gradientTransform="translate(120 120) rotate(90) scale(86)">
<stop stop-color="white"/>
<stop offset="1" stop-color="#EEECF3"/>
</radialGradient>
</defs>
</svg>
