<?xml version="1.0" encoding="UTF-8"?>
<svg width="425px" height="388px" viewBox="0 0 425 388" version="1.1" xmlns="http://www.w3.org/2000/svg" xmlns:xlink="http://www.w3.org/1999/xlink">
    <!-- Generator: Sketch 52.6 (67491) - http://www.bohemiancoding.com/sketch -->
    <title>Purple 2-line</title>
    <desc>Created with Sketch.</desc>
    <g id="Purple-2-line" stroke="none" stroke-width="1" fill="none" fill-rule="evenodd">
        <polygon id="Path" fill="#312856" points="51.9159456 0 1.7408297e-13 0 0.00731828949 222 51.9159456 222"></polygon>
        <path d="M102.466563,190.086915 C112.596434,200.334713 124.814998,208.307909 138.301168,213.470705 C153.238071,219.264467 169.155345,222.150954 185.187567,221.973228 C218.002839,222.674319 249.592927,209.578179 272.187886,185.905953 L244.904467,147.492898 C237.06616,155.295006 227.970137,161.73804 217.993162,166.555127 C208.545848,171.293119 198.12744,173.802503 187.546772,173.888461 C178.223949,174.036668 168.983446,172.13389 160.486621,168.316311 C152.970006,164.989915 146.368901,159.913704 141.240871,153.516444 C136.420214,147.352397 132.704207,140.408264 130.256057,132.989029 C127.735121,125.372497 126.466044,117.401567 126.497703,109.383241 C126.450069,101.669227 127.643502,93.9972788 130.032789,86.6580454 C132.370927,79.5639247 135.995534,72.9553738 140.727353,67.1592208 C145.869146,61.0204741 152.453945,56.2370627 159.898681,53.2325461 C168.666704,49.6660716 178.075143,47.9184811 187.546772,48.0969923 C197.3775,48.2216087 207.082066,50.3155709 216.080495,54.2537369 C225.404203,58.0772133 234.044619,63.3748985 241.667073,69.9415957 L266.14475,30.3519519 C255.682462,20.2345143 243.12897,12.5048834 229.357533,7.70075566 C215.200401,2.59544514 200.254477,-0.00908895434 185.19501,0.00482489537 C169.523706,-0.134696625 153.974268,2.75292242 139.410068,8.50734841 C125.959634,13.7470273 113.736742,21.6813285 103.50104,31.8171387 C93.5231358,41.9114533 85.6541651,53.8703171 80.3480897,67.0038222 C74.6988952,80.8307097 71.8437854,95.6284982 71.9457493,110.55243 C71.8064861,125.666062 74.5306913,140.670616 79.9759755,154.781833 C85.0285477,167.924436 92.675607,179.928572 102.466563,190.086915 Z" id="Path" fill="#312856"></path>
        <polygon id="Path" fill="#312856" points="424.969098 176.86 337.462385 176.86 337.453646 133.94 402.719407 133.94 402.719407 88.8 337.462385 88.8 337.453646 45.14 417.552534 45.14 417.552534 0 284.142899 0 284.054388 222 424.969098 222"></polygon>
        <path d="M12.6249915,337.591776 L12.6249915,388 L-2.13162821e-13,388 L-2.13162821e-13,262.066965 L37.0960459,262.066965 C44.7417188,261.69781 52.3840352,262.857787 59.5554691,265.475933 C65.0743188,267.978471 69.7073469,272.029351 72.865393,277.113444 C76.2080867,282.677454 77.6080052,293.361015 77.4332815,299.811764 C77.5994675,307.35335 75.4773194,316.599774 71.1228849,322.826579 C67.1346542,328.637694 61.6291159,332.908311 54.7215464,335.076308 C55.9707644,336.55588 56.5878485,338.079942 57.5467625,339.753868 L84.1666103,388 L70.2126578,388 L42.5041382,337.6 L12.6249915,337.591776 Z M36.6124755,274.6 L12.6249915,274.6 L12.6249915,325 L42.5041382,325 C49.1227861,325.296565 53.9961912,324.825213 58.5986759,320.164897 C63.1464682,315.185487 65.5424656,306.468494 65.2185919,299.8 C65.3002542,295.333689 64.2441019,289.064856 61.9383748,285.208526 C59.7332717,281.545861 56.397835,278.660709 52.4110454,276.967388 C47.2777526,275.217948 42.0418127,274.333941 36.6124755,274.6 Z" id="Combined-Shape" fill="#312856"></path>
        <path d="M118.931204,379.537798 C109.687592,374.010809 102.103505,366.023655 96.9967168,356.437572 C91.6798979,346.498474 88.9577335,335.340001 89.0900506,324.027215 C88.9615656,313.024023 91.6887503,302.180829 96.9967168,292.590578 C102.170783,283.24153 109.754143,275.503193 118.931204,270.207829 C138.350302,259.264057 161.946201,259.264057 181.365299,270.207829 C190.536694,275.496327 198.108071,283.237261 203.257774,292.590578 C208.539092,302.189813 211.250894,313.029442 211.122428,324.027215 C211.254392,335.334697 208.547555,346.48961 203.257774,356.437572 C198.175543,366.027796 190.603463,374.017608 181.365299,379.537798 C162.033835,390.820734 138.262668,390.820734 118.931204,379.537798 Z M125.174193,279.898052 C117.794231,284.240089 111.732994,290.564126 107.655172,298.176656 C103.396177,306.097739 101.217106,315.000868 101.328158,324.027215 C101.211018,333.350631 103.385796,342.556232 107.655172,350.808787 C115.955491,366.838881 132.309019,376.87495 150.129346,376.87495 C167.949673,376.87495 184.303201,366.838881 192.60352,350.808787 C196.85167,342.549162 199.016988,333.346941 198.905326,324.027215 C199.010919,315.004683 196.841376,306.105028 192.60352,298.176656 C188.545206,290.562314 182.495361,284.23651 175.12231,279.898052 C159.612837,271.041032 140.683666,271.041032 125.174193,279.898052 Z" id="Combined-Shape" fill="#312856"></path>
        <path d="M251.557628,379.448462 C261.040631,385.230047 271.896774,388.187175 282.916253,387.990306 C299.891599,388.294085 316.251101,381.447358 328.205593,369.035955 L321.468404,360.57526 C311.210834,370.798354 297.520384,376.557571 283.243986,376.65528 C274.302846,376.809502 265.505247,374.328854 257.888262,369.505757 C250.607602,364.904504 244.726326,358.293338 240.912538,350.423279 C236.965685,342.221551 234.965252,333.172814 235.075577,324.020441 C234.945783,315.055851 236.949771,306.19486 240.912538,298.211262 C244.730987,290.620357 250.559004,284.297576 257.722321,279.974427 C265.309049,275.414487 273.966663,273.087605 282.750313,273.247725 C289.399059,273.277308 295.993759,274.479155 302.248334,276.801132 C308.358246,278.929448 314.02023,282.232382 318.933661,286.534562 L325.173028,277.749276 C319.651377,272.352859 313.021689,268.303801 305.774571,265.90174 C298.249126,263.312358 290.365504,261.996913 282.430877,262.006659 C271.689862,261.844502 261.102622,264.646463 251.769202,270.12141 C242.816423,275.38897 235.471244,283.126907 230.561993,292.462601 C225.458234,302.204803 222.856451,313.127767 223.003398,324.195549 C222.855978,335.403962 225.396638,346.476728 230.400201,356.432466 C235.238522,365.979228 242.564964,373.949259 251.557628,379.448462 Z" id="logo-path" fill="#312856"></path>
        <polygon id="logo-path" fill="#312856" points="356.77665 327.94 376.976636 327.94 411.232244 388 424.951604 388 386.709411 321.851325 422.623089 262 409.15546 262 376.976636 316.6 356.77665 316.6 356.77665 262 344.993324 262 344.993324 388 356.77665 388"></polygon>
    </g>
</svg>