<svg width="240" height="240" viewBox="0 0 240 240" fill="none" xmlns="http://www.w3.org/2000/svg">
<path d="M120 224C177.438 224 224 177.438 224 120C224 62.5624 177.438 16 120 16C62.5624 16 16 62.5624 16 120C16 177.438 62.5624 224 120 224Z" fill="#B1A8E9" fill-opacity="0.5"/>
<path d="M120 206C167.496 206 206 167.496 206 120C206 72.5035 167.496 34 120 34C72.5035 34 34 72.5035 34 120C34 167.496 72.5035 206 120 206Z" fill="url(#paint0_radial)" fill-opacity="0.8"/>
<path d="M98.7936 101.171C105.97 101.171 112.313 103.645 116.158 107.434C118.25 109.496 121.604 109.496 123.697 107.434C127.541 103.646 133.885 101.171 141.06 101.171C142.837 101.171 144.563 101.323 146.212 101.609C147.963 101.913 149.569 100.579 149.569 98.8019V68.0969H90.2856V98.8019C90.2856 100.58 91.8906 101.913 93.642 101.609C95.2917 101.323 97.0166 101.171 98.7936 101.171Z" fill="#4E3EB8"/>
<path d="M165.771 73.157H74.0836C71.1594 73.157 68.7891 70.7867 68.7891 67.8635C68.7891 65.1974 70.9506 63.0359 73.6157 63.0359H166.238C168.903 63.0359 171.064 65.1974 171.064 67.8635C171.064 70.7867 168.694 73.157 165.771 73.157Z" fill="#8170F1"/>
<path d="M81.4307 178.242C81.4307 156.981 98.6664 139.746 119.927 139.746C141.188 139.746 158.423 156.981 158.423 178.242H81.4307Z" fill="#EAC351"/>
<path d="M169.11 86.3213C162.409 94.1482 152.62 98.6535 142.317 98.6535H138.924C135.325 98.6535 127.625 98.6535 119.927 98.6535C112.228 98.6535 104.529 98.6535 100.93 98.6535H97.5375C87.2342 98.6535 77.4454 94.1482 70.7437 86.3213V128.839C70.7437 145.511 84.2587 159.025 100.93 159.025C108.129 159.025 114.739 156.503 119.927 152.297C125.115 156.503 131.725 159.025 138.924 159.025C155.596 159.025 169.11 145.511 169.11 128.839V86.3213Z" fill="#FFDB72"/>
<path d="M76.6818 128.839V91.8237C74.5175 90.2371 72.5217 88.3978 70.7437 86.3223V128.84C70.7437 145.511 84.2587 159.026 100.93 159.026C101.93 159.026 102.919 158.976 103.895 158.88C88.6194 157.386 76.6818 144.508 76.6818 128.839Z" fill="#EAC351"/>
<path d="M152.961 128.839C152.961 136.992 146.352 143.601 138.199 143.601C130.046 143.601 123.436 136.992 123.436 128.839C123.436 120.687 130.046 114.077 138.199 114.077C146.352 114.077 152.961 120.687 152.961 128.839Z" fill="white"/>
<path d="M129.374 128.839C129.374 121.704 134.438 115.75 141.167 114.377C140.208 114.181 139.215 114.077 138.199 114.077C130.045 114.077 123.436 120.687 123.436 128.839C123.436 136.993 130.045 143.601 138.199 143.601C139.215 143.601 140.208 143.499 141.167 143.303C134.438 141.929 129.374 135.976 129.374 128.839Z" fill="#DDDDDD"/>
<path d="M116.418 128.839C116.418 136.992 109.808 143.601 101.656 143.601C93.5018 143.601 86.8926 136.992 86.8926 128.839C86.8926 120.687 93.5018 114.077 101.656 114.077C109.808 114.077 116.418 120.687 116.418 128.839Z" fill="white"/>
<path d="M92.8307 128.839C92.8307 121.704 97.8945 115.75 104.624 114.377C103.665 114.181 102.672 114.077 101.656 114.077C93.5018 114.077 86.8926 120.687 86.8926 128.839C86.8926 136.993 93.5018 143.601 101.656 143.601C102.672 143.601 103.665 143.499 104.624 143.303C97.8945 141.929 92.8307 135.976 92.8307 128.839Z" fill="#DDDDDD"/>
<path d="M119.927 137.252C116.796 137.252 114.023 138.376 111.984 139.55C109.807 140.802 109.041 143.573 110.251 145.772C112.56 149.973 116.613 156.35 119.927 156.35C123.241 156.35 127.293 149.973 129.604 145.772C130.813 143.573 130.046 140.802 127.871 139.55C125.83 138.376 123.059 137.252 119.927 137.252Z" fill="#FFDB72"/>
<path d="M116.188 145.772C114.978 143.573 115.746 140.802 117.921 139.55C119.288 138.765 120.984 138.002 122.896 137.584C121.954 137.377 120.96 137.252 119.927 137.252C116.796 137.252 114.023 138.376 111.984 139.55C109.807 140.802 109.041 143.573 110.251 145.772C112.56 149.973 116.613 156.35 119.927 156.35C120.875 156.35 121.884 155.826 122.896 154.981C120.374 152.877 117.837 148.77 116.188 145.772Z" fill="#EAC351"/>
<path d="M142.89 107.105H130.417C129.186 107.105 128.288 105.94 128.601 104.75L131.121 95.1764C131.783 92.6624 134.055 90.9109 136.653 90.9109C139.253 90.9109 141.525 92.6624 142.186 95.1764L144.706 104.75C145.019 105.94 144.12 107.105 142.89 107.105Z" fill="#FADC60"/>
<path d="M134.994 104.75L137.513 95.1764C137.877 93.7958 138.727 92.6477 139.85 91.8906C138.929 91.2698 137.825 90.9109 136.653 90.9109C134.055 90.9109 131.783 92.6633 131.121 95.1764L128.601 104.75C128.288 105.94 129.186 107.105 130.417 107.105H136.809C135.579 107.105 134.68 105.94 134.994 104.75Z" fill="#E6CB59"/>
<path d="M139.821 89.2996H133.486V62.9764C133.486 62.3035 134.031 61.7578 134.705 61.7578H138.603C139.276 61.7578 139.821 62.3035 139.821 62.9764V89.2996Z" fill="#8170F1"/>
<path d="M140.362 89.3326C140.362 91.3815 138.701 93.0423 136.653 93.0423C134.605 93.0423 132.945 91.3815 132.945 89.3326C132.945 87.2845 134.605 85.6238 136.653 85.6238C138.701 85.6238 140.362 87.2845 140.362 89.3326Z" fill="#E6CB59"/>
<path d="M169.72 84.6725C169.028 84.418 168.254 84.6194 167.775 85.1788C163.419 90.2664 157.668 93.8837 151.326 95.657V74.9149H165.771C169.659 74.9149 172.822 71.7517 172.822 67.8635C172.822 64.2325 169.868 61.2781 166.238 61.2781H141.043C140.505 60.5072 139.612 60 138.603 60H134.705C133.694 60 132.802 60.5072 132.263 61.2781H73.6159C69.9849 61.2781 67.0312 64.2325 67.0312 67.8635C67.0312 71.7517 70.1946 74.9149 74.0838 74.9149H88.528V95.6653C82.1908 93.8992 76.4522 90.2856 72.0788 85.1788C71.6008 84.6194 70.8245 84.418 70.1342 84.6735C69.4439 84.928 68.9861 85.5862 68.9861 86.3223V128.839C68.9861 136.878 71.9817 144.558 77.4218 150.468C79.8507 153.106 82.6705 155.288 85.7567 156.956C81.7714 163.336 79.673 170.655 79.673 178.242C79.673 179.214 80.4604 180 81.4309 180H158.423C159.394 180 160.181 179.214 160.181 178.242C160.181 170.651 158.08 163.329 154.091 156.947C164.073 151.539 170.868 140.968 170.868 128.839V86.3223C170.868 85.5862 170.41 84.928 169.72 84.6725ZM141.579 64.7937H166.238C167.931 64.7937 169.307 66.1707 169.307 67.8635C169.307 69.8126 167.721 71.3992 165.771 71.3992H149.573C149.572 71.3992 149.57 71.3992 149.569 71.3992C149.567 71.3992 149.565 71.3992 149.564 71.3992H141.579V64.7937ZM141.579 74.9149H147.811V96.4389C146.698 96.6248 145.573 96.7538 144.438 96.8262L143.886 94.7287C143.525 93.3572 142.799 92.146 141.792 91.1975C142.005 90.6152 142.12 89.9872 142.12 89.3326C142.12 88.4839 141.926 87.6791 141.578 86.9614V74.9149H141.579ZM135.244 64.7937H138.063V84.0509C137.613 83.931 137.141 83.866 136.653 83.866C136.166 83.866 135.694 83.931 135.244 84.0509V64.7937ZM136.653 87.3816C137.729 87.3816 138.604 88.2568 138.604 89.3326C138.604 90.4083 137.729 91.2836 136.653 91.2836C135.578 91.2836 134.702 90.4083 134.702 89.3326C134.702 88.2568 135.578 87.3816 136.653 87.3816ZM132.821 95.6232C132.988 94.9896 133.302 94.4202 133.734 93.9514C134.579 94.4879 135.58 94.8001 136.653 94.8001C137.726 94.8001 138.728 94.4879 139.573 93.9514C140.004 94.4202 140.319 94.9896 140.486 95.6232L143.005 105.198C143.01 105.214 143.02 105.255 142.984 105.3C142.949 105.347 142.907 105.347 142.89 105.347H130.417C130.399 105.347 130.358 105.347 130.323 105.3C130.287 105.255 130.297 105.214 130.302 105.198L132.821 95.6232ZM74.0838 71.3992C72.1337 71.3992 70.5471 69.8126 70.5471 67.8635C70.5471 66.1707 71.924 64.7937 73.6159 64.7937H131.728V71.3992H121.237C120.266 71.3992 119.479 72.1866 119.479 73.157C119.479 74.1284 120.266 74.9149 121.237 74.9149H131.728V86.9614C131.381 87.6791 131.187 88.4839 131.187 89.3326C131.187 89.9872 131.302 90.6152 131.515 91.1975C130.508 92.146 129.781 93.3582 129.421 94.7287L128.85 96.8958H97.5377C95.682 96.8958 93.8454 96.7419 92.0437 96.4435V74.9149H114.423C115.394 74.9149 116.18 74.1284 116.18 73.157C116.18 72.1866 115.394 71.3992 114.423 71.3992H90.2904C90.2886 71.3992 90.2868 71.3992 90.2858 71.3992C90.284 71.3992 90.2821 71.3992 90.2812 71.3992H74.0838ZM167.352 128.839C167.352 144.515 154.6 157.267 138.924 157.267C134.455 157.267 130.065 156.218 126.111 154.22C126.243 154.065 126.375 153.907 126.508 153.743C127.994 151.907 129.554 149.51 131.144 146.619C131.582 145.822 131.829 144.967 131.901 144.109C133.843 144.913 135.97 145.359 138.199 145.359C147.308 145.359 154.719 137.949 154.719 128.839C154.719 119.731 147.308 112.32 138.199 112.32C129.089 112.32 121.679 119.731 121.679 128.839C121.679 131.347 122.243 133.725 123.247 135.856C122.139 135.616 121.03 135.495 119.927 135.495C118.824 135.495 117.716 135.616 116.607 135.856C117.611 133.725 118.175 131.347 118.175 128.839C118.175 119.731 110.765 112.32 101.656 112.32C92.5463 112.32 85.136 119.731 85.136 128.839C85.136 137.949 92.5463 145.359 101.656 145.359C103.885 145.359 106.011 144.913 107.953 144.109C108.026 144.967 108.272 145.822 108.71 146.619C110.3 149.51 111.86 151.907 113.346 153.743C113.48 153.907 113.611 154.066 113.744 154.221C110.945 155.64 107.953 156.574 104.824 157.004C103.862 157.136 103.189 158.022 103.321 158.984C103.442 159.865 104.195 160.503 105.06 160.503C105.14 160.503 105.22 160.497 105.301 160.486C109.227 159.949 112.96 158.703 116.412 156.783C117.629 157.669 118.793 158.108 119.927 158.108C121.059 158.108 122.224 157.669 123.441 156.783C128.16 159.403 133.49 160.783 138.924 160.783C143.153 160.783 147.19 159.955 150.887 158.457C154.357 163.871 156.322 170.047 156.624 176.484H83.2299C83.5329 170.051 85.4949 163.877 88.9611 158.464C91.8551 159.634 94.9276 160.38 98.0944 160.659C98.1466 160.664 98.1987 160.666 98.25 160.666C99.1518 160.666 99.9189 159.977 99.9995 159.062C100.085 158.095 99.3697 157.242 98.4029 157.157C83.879 155.878 72.5017 143.44 72.5017 128.839V90.6674C79.294 96.9049 88.2012 100.411 97.5377 100.411H127.926L126.902 104.302C126.613 105.402 126.844 106.547 127.538 107.447C128.232 108.346 129.282 108.863 130.417 108.863H142.89C144.027 108.863 145.075 108.346 145.769 107.446C146.462 106.547 146.695 105.401 146.406 104.302L145.348 100.285C146.875 100.16 148.387 99.9408 149.874 99.6304C149.919 99.6222 149.963 99.6121 150.007 99.6011C156.465 98.2269 162.467 95.1453 167.353 90.6656V128.839H167.352ZM112.86 141.074C115.24 139.705 117.619 139.01 119.927 139.01C122.236 139.01 124.613 139.705 126.994 141.074C128.329 141.842 128.808 143.569 128.063 144.925C124.139 152.06 121.228 154.592 119.927 154.592C118.626 154.592 115.714 152.06 111.79 144.925C111.045 143.569 111.525 141.842 112.86 141.074ZM101.656 141.844C94.4854 141.844 88.6507 136.01 88.6507 128.839C88.6507 121.669 94.4854 115.835 101.656 115.835C108.826 115.835 114.66 121.669 114.66 128.839C114.66 136.011 108.826 141.844 101.656 141.844ZM125.195 128.839C125.195 121.669 131.028 115.835 138.199 115.835C145.369 115.835 151.203 121.669 151.203 128.839C151.203 136.011 145.369 141.844 138.199 141.844C131.028 141.844 125.195 136.011 125.195 128.839Z" fill="#323845"/>
<path d="M101.656 125.772C100.684 125.772 99.8975 126.559 99.8975 127.53V130.15C99.8975 131.12 100.684 131.907 101.656 131.907C102.626 131.907 103.413 131.12 103.413 130.15V127.53C103.413 126.559 102.626 125.772 101.656 125.772Z" fill="#323845"/>
<path d="M138.199 131.907C139.169 131.907 139.957 131.12 139.957 130.15V127.53C139.957 126.559 139.169 125.772 138.199 125.772C137.227 125.772 136.441 126.559 136.441 127.53V130.15C136.441 131.12 137.227 131.907 138.199 131.907Z" fill="#323845"/>
<path d="M188 210C194.627 210 200 204.627 200 198C200 191.373 194.627 186 188 186C181.373 186 176 191.373 176 198C176 204.627 181.373 210 188 210Z" fill="#8170F1"/>
<path d="M39 152C42.3137 152 45 149.314 45 146C45 142.686 42.3137 140 39 140C35.6863 140 33 142.686 33 146C33 149.314 35.6863 152 39 152Z" fill="#8170F1"/>
<path d="M161.5 33C166.194 33 170 29.1944 170 24.5C170 19.8056 166.194 16 161.5 16C156.806 16 153 19.8056 153 24.5C153 29.1944 156.806 33 161.5 33Z" fill="#8170F1"/>
<defs>
<radialGradient id="paint0_radial" cx="0" cy="0" r="1" gradientUnits="userSpaceOnUse" gradientTransform="translate(120 120) rotate(90) scale(86)">
<stop stop-color="white"/>
<stop offset="1" stop-color="#EEECF3"/>
</radialGradient>
</defs>
</svg>
