<svg width="240" height="240" viewBox="0 0 240 240" fill="none" xmlns="http://www.w3.org/2000/svg">
<path d="M120 224C177.438 224 224 177.438 224 120C224 62.5624 177.438 16 120 16C62.5624 16 16 62.5624 16 120C16 177.438 62.5624 224 120 224Z" fill="#B1A8E9" fill-opacity="0.5"/>
<path d="M120 206C167.496 206 206 167.496 206 120C206 72.5035 167.496 34 120 34C72.5035 34 34 72.5035 34 120C34 167.496 72.5035 206 120 206Z" fill="url(#paint0_radial)" fill-opacity="0.8"/>
<path d="M28 177C34.6274 177 40 171.627 40 165C40 158.373 34.6274 153 28 153C21.3726 153 16 158.373 16 165C16 171.627 21.3726 177 28 177Z" fill="#8170F1"/>
<path d="M207 216C211.971 216 216 211.971 216 207C216 202.029 211.971 198 207 198C202.029 198 198 202.029 198 207C198 211.971 202.029 216 207 216Z" fill="#8170F1"/>
<path d="M146 44C149.314 44 152 41.3137 152 38C152 34.6863 149.314 32 146 32C142.686 32 140 34.6863 140 38C140 41.3137 142.686 44 146 44Z" fill="#8170F1"/>
<path d="M160.77 84.8555C163.876 84.8555 166.395 82.3371 166.395 79.2305C166.395 76.1239 163.876 73.6055 160.77 73.6055C157.663 73.6055 155.145 76.1239 155.145 79.2305C155.145 82.3371 157.663 84.8555 160.77 84.8555Z" fill="#EAC351"/>
<path d="M79.2305 166.395C82.3371 166.395 84.8555 163.876 84.8555 160.77C84.8555 157.663 82.3371 155.145 79.2305 155.145C76.1239 155.145 73.6055 157.663 73.6055 160.77C73.6055 163.876 76.1239 166.395 79.2305 166.395Z" fill="#EAC351"/>
<path d="M160.77 166.395C163.876 166.395 166.395 163.876 166.395 160.77C166.395 157.663 163.876 155.145 160.77 155.145C157.663 155.145 155.145 157.663 155.145 160.77C155.145 163.876 157.663 166.395 160.77 166.395Z" fill="#8170F1"/>
<path d="M79.2305 84.8555C82.3371 84.8555 84.8555 82.3371 84.8555 79.2305C84.8555 76.1239 82.3371 73.6055 79.2305 73.6055C76.1239 73.6055 73.6055 76.1239 73.6055 79.2305C73.6055 82.3371 76.1239 84.8555 79.2305 84.8555Z" fill="#8170F1"/>
<path d="M155.521 112.31C154.586 107.962 152.875 103.902 150.537 100.284L155.237 95.5846L144.389 84.7452L139.694 89.4404C136.076 87.1025 132.016 85.3914 127.668 84.4572V77.8167H112.333V84.4572C107.984 85.3914 103.924 87.1025 100.306 89.4404L95.6109 84.7452L84.7636 95.5846L89.4628 100.284C87.1247 103.902 85.4135 107.962 84.4793 112.31H77.8209L77.8125 127.645H84.4788C85.413 131.994 87.1242 136.054 89.4623 139.672L84.7453 144.389L95.5847 155.237L100.306 150.516C103.924 152.854 107.984 154.565 112.333 155.499V162.183H127.668V155.499C132.017 154.565 136.077 152.854 139.695 150.516L144.416 155.237L155.255 144.389L150.538 139.672C152.876 136.054 154.587 131.994 155.521 127.645H162.188V112.31H155.521ZM120 137.812C110.162 137.812 102.188 129.838 102.188 120C102.188 110.162 110.162 102.187 120 102.187C129.838 102.187 137.812 110.162 137.812 120C137.812 129.838 129.838 137.812 120 137.812Z" fill="#FFDB72"/>
<path d="M94.4444 169.067L94.3626 169.024C93.2156 168.424 91.7993 168.868 91.1995 170.015C90.5995 171.162 91.0432 172.578 92.1902 173.178L92.272 173.221C92.6189 173.403 92.9901 173.489 93.3562 173.489C94.2007 173.489 95.0165 173.031 95.4351 172.23C96.0351 171.083 95.5915 169.667 94.4444 169.067Z" fill="#323845"/>
<path d="M143.605 69.963L143.667 69.9926C143.994 70.1489 144.339 70.2232 144.678 70.2232C145.552 70.2232 146.391 69.7323 146.794 68.8916C147.353 67.7244 146.86 66.3244 145.692 65.7652L145.607 65.7245C144.436 65.1718 143.039 65.6726 142.486 66.8428C141.934 68.0133 142.435 69.4102 143.605 69.963Z" fill="#323845"/>
<path d="M167.551 83.4123C169.444 80.3415 169.063 76.2555 166.404 73.596C163.297 70.4891 158.241 70.4891 155.134 73.596C152.027 76.7031 152.027 81.7586 155.134 84.8657C156.688 86.4191 158.728 87.1958 160.769 87.1958C161.878 87.1958 162.986 86.9645 164.017 86.5058C171.314 96.0918 175.313 107.904 175.313 120C175.313 128.228 173.55 136.145 170.073 143.53C169.521 144.701 170.024 146.097 171.195 146.649C171.518 146.801 171.857 146.873 172.192 146.873C173.071 146.873 173.914 146.375 174.314 145.526C178.087 137.512 180 128.924 180 120C180 106.772 175.59 93.8568 167.551 83.4123ZM158.449 81.5509C157.17 80.2717 157.17 78.19 158.449 76.9105C159.089 76.2709 159.929 75.951 160.769 75.951C161.609 75.951 162.45 76.2709 163.089 76.9105C164.369 78.1898 164.369 80.2715 163.089 81.5509C163.079 81.561 163.068 81.5692 163.058 81.579C163.057 81.58 163.056 81.5807 163.054 81.5816C163.028 81.6037 163.004 81.628 162.978 81.651C161.693 82.8257 159.693 82.7948 158.449 81.5509Z" fill="#323845"/>
<path d="M75.983 153.494C68.6862 143.908 64.6875 132.096 64.6875 120C64.6875 112.359 66.2159 104.962 69.2302 98.0127C69.7453 96.8251 69.2002 95.4449 68.0126 94.9297C66.8255 94.4153 65.445 94.9597 64.9296 96.1473C61.6587 103.689 60 111.714 60 120C60 133.228 64.4095 146.143 72.4491 156.588C70.5558 159.658 70.9366 163.744 73.5961 166.404C75.1495 167.957 77.1902 168.734 79.2309 168.734C81.2716 168.734 83.3123 167.957 84.8658 166.404C87.9727 163.297 87.9727 158.241 84.8658 155.134C82.4679 152.737 78.9105 152.191 75.983 153.494ZM81.551 163.089C80.2718 164.369 78.1898 164.369 76.9106 163.089C75.6312 161.81 75.6312 159.728 76.9106 158.449C76.9205 158.439 76.9315 158.431 76.9416 158.421C76.9427 158.42 76.9441 158.419 76.9453 158.418C76.972 158.396 76.9959 158.372 77.0215 158.349C77.6461 157.778 78.4376 157.489 79.2309 157.489C80.0712 157.489 80.9114 157.809 81.551 158.449C82.8305 159.728 82.8305 161.81 81.551 163.089Z" fill="#323845"/>
<path d="M155.134 155.134C152.737 157.532 152.191 161.089 153.494 164.017C143.908 171.314 132.096 175.313 120 175.313C113.641 175.313 107.407 174.243 101.473 172.134C100.253 171.7 98.9126 172.337 98.4792 173.557C98.0459 174.777 98.6829 176.117 99.9026 176.55C106.343 178.839 113.104 180 120 180C133.228 180 146.143 175.59 156.588 167.551C157.865 168.338 159.316 168.734 160.769 168.734C162.81 168.734 164.85 167.957 166.404 166.404C169.511 163.297 169.511 158.241 166.404 155.134C163.297 152.027 158.241 152.027 155.134 155.134ZM163.089 163.089C161.81 164.369 159.728 164.369 158.449 163.089C158.439 163.079 158.431 163.068 158.421 163.058C158.42 163.057 158.419 163.056 158.418 163.055C158.396 163.028 158.372 163.004 158.349 162.979C157.174 161.693 157.205 159.693 158.449 158.449C159.089 157.809 159.929 157.489 160.769 157.489C161.609 157.489 162.45 157.809 163.089 158.449C164.369 159.728 164.369 161.81 163.089 163.089Z" fill="#323845"/>
<path d="M79.2311 87.1959C81.2718 87.1959 83.3125 86.4192 84.866 84.8658C87.2636 82.4681 87.809 78.9105 86.5061 75.983C96.0921 68.6862 107.904 64.6875 120 64.6875C125.557 64.6875 131.04 65.5085 136.299 67.1276C137.535 67.5082 138.847 66.8147 139.228 65.5774C139.609 64.3404 138.915 63.0286 137.678 62.6477C131.973 60.8909 126.025 60 120 60C106.772 60 93.8571 64.4095 83.4126 72.4491C80.3418 70.5558 76.2557 70.9369 73.5963 73.5961C70.4894 76.7032 70.4894 81.7587 73.5963 84.8658C75.1497 86.4192 77.1904 87.1959 79.2311 87.1959ZM76.9108 76.9106C77.5504 76.271 78.3907 75.9511 79.2309 75.9511C80.0711 75.9511 80.9114 76.271 81.551 76.9106C81.5611 76.9207 81.5693 76.9317 81.5791 76.9418C81.58 76.943 81.5807 76.9441 81.5817 76.9453C81.5901 76.9556 81.6 76.9643 81.6086 76.9746C82.8271 78.2583 82.8098 80.2924 81.551 81.5513C80.2718 82.8307 78.1898 82.8307 76.9106 81.5513C75.6314 80.2718 75.6314 78.1901 76.9108 76.9106Z" fill="#323845"/>
<path d="M110.005 157.35V162.18C110.005 162.802 110.252 163.398 110.691 163.838C111.131 164.277 111.727 164.524 112.348 164.524C112.349 164.524 112.349 164.524 112.349 164.524L127.684 164.518C128.978 164.518 130.027 163.469 130.027 162.175V157.35C133.303 156.476 136.429 155.182 139.359 153.486L142.768 156.894C143.683 157.809 145.167 157.809 146.083 156.894L156.926 146.051C157.841 145.136 157.841 143.652 156.926 142.736L153.517 139.328C155.213 136.397 156.508 133.271 157.381 129.995H162.181C162.802 129.995 163.399 129.748 163.838 129.309C164.278 128.869 164.525 128.273 164.524 127.651L164.519 112.316C164.518 111.022 163.469 109.973 162.175 109.973H157.38C156.507 106.697 155.213 103.571 153.517 100.641L156.907 97.251C157.822 96.3357 157.822 94.8517 156.907 93.9362L146.064 83.0931C145.148 82.1781 143.664 82.1781 142.749 83.0931L139.359 86.4833C136.428 84.7871 133.302 83.4931 130.027 82.6196V77.8255C130.027 76.5315 128.978 75.4822 127.684 75.4817L112.349 75.4761C112.349 75.4761 112.349 75.4761 112.348 75.4761C111.727 75.4761 111.131 75.7229 110.691 76.1624C110.251 76.6018 110.004 77.1981 110.004 77.8199V82.6196C106.729 83.4929 103.603 84.7871 100.672 86.4833L97.2695 83.0806C96.3542 82.1654 94.8711 82.1652 93.9556 83.0797L83.1062 93.9172C82.6663 94.3567 82.419 94.9529 82.4188 95.5747C82.4188 96.1965 82.6656 96.793 83.1053 97.2327L86.5138 100.641C84.8176 103.572 83.5234 106.698 82.6499 109.973H77.8255C76.5315 109.973 75.4822 111.022 75.4817 112.316L75.4761 127.651C75.4759 128.273 75.7227 128.869 76.1624 129.309C76.6021 129.749 77.1981 129.996 77.8199 129.996H82.6503C83.5238 133.272 84.8181 136.398 86.5142 139.328L83.0931 142.749C82.1778 143.664 82.1778 145.148 83.0931 146.064L93.9364 156.907C94.8517 157.822 96.3357 157.822 97.2512 156.907L100.672 153.486C103.603 155.182 106.729 156.476 110.005 157.35ZM98.6626 148.866L95.5937 151.935L88.0649 144.406L91.1338 141.338C91.9149 140.556 92.0445 139.336 91.445 138.408C89.218 134.962 87.651 131.178 86.7878 127.159C86.5557 126.079 85.6011 125.308 84.4963 125.308H80.1646L80.1685 114.661H84.4965C85.6011 114.661 86.556 113.889 86.788 112.809C87.6514 108.791 89.2185 105.007 91.4453 101.561C92.045 100.633 91.9152 99.4126 91.1342 98.6314L88.0785 95.5759L95.6115 88.0513L98.6631 91.1028C99.4442 91.884 100.665 92.0136 101.592 91.4141C105.038 89.1873 108.823 87.6203 112.841 86.7568C113.921 86.5248 114.692 85.5702 114.692 84.4653V80.1646L125.34 80.1685V84.4658C125.34 85.5704 126.111 86.5253 127.191 86.7573C131.209 87.6207 134.994 89.1878 138.439 91.4146C139.366 92.0143 140.587 91.8845 141.368 91.1035L144.406 88.0653L151.935 95.5942L148.897 98.6324C148.116 99.4135 147.986 100.634 148.586 101.562C150.813 105.007 152.38 108.791 153.243 112.81C153.475 113.89 154.43 114.661 155.535 114.661H159.832L159.836 125.308H155.535C154.43 125.308 153.476 126.08 153.244 127.16C152.38 131.178 150.813 134.962 148.586 138.408C147.987 139.336 148.116 140.556 148.897 141.338L151.954 144.394L144.425 151.923L141.369 148.866C140.588 148.085 139.367 147.956 138.439 148.555C134.994 150.782 131.209 152.349 127.191 153.213C126.111 153.445 125.34 154.399 125.34 155.504V159.832L114.692 159.836V155.504C114.692 154.4 113.921 153.445 112.841 153.213C108.822 152.349 105.038 150.783 101.592 148.556C101.202 148.303 100.76 148.18 100.321 148.18C99.7156 148.18 99.1154 148.414 98.6626 148.866Z" fill="#323845"/>
<path d="M120 140.147C125.162 140.147 130.323 138.182 134.253 134.253C139.62 128.886 141.512 121.059 139.192 113.828C138.796 112.595 137.476 111.916 136.244 112.312C135.012 112.707 134.333 114.027 134.729 115.26C136.51 120.811 135.057 126.819 130.938 130.938C124.907 136.97 115.093 136.969 109.062 130.938C103.031 124.907 103.031 115.093 109.062 109.062C113.084 105.041 118.972 103.552 124.429 105.175C125.669 105.544 126.975 104.838 127.344 103.597C127.713 102.357 127.007 101.052 125.766 100.683C118.658 98.5669 110.987 100.508 105.747 105.748C97.8884 113.606 97.8884 126.394 105.747 134.253C109.677 138.182 114.838 140.147 120 140.147Z" fill="#323845"/>
<defs>
<radialGradient id="paint0_radial" cx="0" cy="0" r="1" gradientUnits="userSpaceOnUse" gradientTransform="translate(120 120) rotate(90) scale(86)">
<stop stop-color="white"/>
<stop offset="1" stop-color="#EEECF3"/>
</radialGradient>
</defs>
</svg>
